<?xml version="1.0" encoding="UTF-8"?><svg id="a" xmlns="http://www.w3.org/2000/svg" width="98.7" height="32.7" viewBox="0 0 98.7 32.7"><defs><style>.b{fill:#fff;}.c{isolation:isolate;}</style></defs><rect width="98.7" height="32.7"/><g class="c"><path class="b" d="M18.9,20.3h-1.3l-5.2-8h-.1c.1,.9,.1,1.8,.1,2.6v5.4h-1V10.7h1.3l5.2,8h.1c0-.1,0-.5-.1-1.1v-6.9h1v9.6Z"/><path class="b" d="M24.4,20.4c-1.1,0-1.9-.3-2.5-1-.6-.6-.9-1.5-.9-2.7s.3-2.1,.9-2.8,1.3-1,2.3-1c.9,0,1.6,.3,2.1,.9s.8,1.4,.8,2.3v.7h-4.9c0,.8,.2,1.5,.6,1.9s1,.7,1.7,.7c.8,0,1.5-.2,2.3-.5v1c-.4,.2-.7,.3-1.1,.4-.4,0-.8,.1-1.3,.1Zm-.3-6.5c-.6,0-1,.2-1.4,.6-.3,.4-.5,.9-.6,1.6h3.7c0-.7-.2-1.2-.5-1.6-.2-.4-.6-.6-1.2-.6Z"/><path class="b" d="M30.6,16.6l-2.5-3.5h1.2l1.9,2.7,1.9-2.7h1.2l-2.5,3.5,2.6,3.7h-1.2l-2-2.9-2,2.9h-1.2l2.6-3.7Z"/><path class="b" d="M38.2,19.5h.6c.2,0,.3-.1,.4-.1v.8c-.1,.1-.3,.1-.5,.1s-.4,.1-.6,.1c-1.4,0-2.1-.7-2.1-2.2v-4.3h-1v-.5l1-.5,.5-1.5h.6v1.7h2.1v.8h-2.1v4.2c0,.4,.1,.8,.3,1,.2,.3,.4,.4,.8,.4Z"/><path class="b" d="M49.6,17.7c0,.8-.3,1.5-.9,2-.6,.5-1.4,.7-2.5,.7s-2-.1-2.6-.4v-1.1c.4,.2,.8,.3,1.3,.4s.9,.1,1.4,.1c.7,0,1.3-.1,1.7-.4s.6-.7,.6-1.2c0-.3-.1-.6-.2-.8-.1-.2-.4-.4-.7-.6s-.8-.4-1.4-.6c-.9-.3-1.5-.7-1.9-1.1s-.6-1-.6-1.7,.3-1.3,.8-1.8c.6-.4,1.3-.7,2.2-.7,1,0,1.8,.2,2.6,.5l-.3,1c-.8-.3-1.6-.5-2.3-.5-.6,0-1,.1-1.4,.4s-.5,.6-.5,1.1c0,.3,.1,.6,.2,.8,.1,.2,.3,.4,.6,.6,.3,.2,.7,.4,1.3,.6,1,.4,1.7,.7,2.1,1.2,.4,.5,.5,.9,.5,1.5Z"/><path class="b" d="M54.5,20.4c-1.1,0-1.9-.3-2.5-1-.6-.6-.9-1.5-.9-2.7s.3-2.1,.9-2.8,1.3-1,2.3-1c.9,0,1.6,.3,2.1,.9s.8,1.4,.8,2.3v.7h-4.9c0,.8,.2,1.5,.6,1.9,.4,.4,1,.7,1.7,.7,.8,0,1.5-.2,2.3-.5v1c-.4,.2-.7,.3-1.1,.4-.4,0-.9,.1-1.3,.1Zm-.3-6.5c-.6,0-1,.2-1.4,.6-.3,.4-.5,.9-.6,1.6h3.7c0-.7-.2-1.2-.5-1.6-.2-.4-.7-.6-1.2-.6Z"/><path class="b" d="M61.8,20.4c-1,0-1.8-.3-2.4-1-.6-.6-.9-1.5-.9-2.7s.3-2.1,.9-2.8,1.4-1,2.5-1c.3,0,.7,0,1,.1s.6,.2,.8,.3l-.3,.9c-.2-.1-.5-.2-.8-.2s-.5-.1-.8-.1c-1.5,0-2.2,.9-2.2,2.8,0,.9,.2,1.6,.5,2,.4,.5,.9,.7,1.6,.7,.6,0,1.2-.1,1.8-.4v1c-.4,.3-1,.4-1.7,.4Z"/><path class="b" d="M67.6,19.5h.6c.2,0,.3-.1,.4-.1v.8c-.1,.1-.3,.1-.5,.1s-.4,.1-.6,.1c-1.4,0-2.1-.7-2.1-2.2v-4.3h-1v-.5l1-.5,.5-1.5h.6v1.7h2.1v.8h-2.1v4.2c0,.4,.1,.8,.3,1,.2,.3,.5,.4,.8,.4Z"/><path class="b" d="M69.9,11.2c0-.2,.1-.4,.2-.5s.3-.2,.5-.2,.3,.1,.5,.2c.1,.1,.2,.3,.2,.5s-.1,.4-.2,.5-.3,.2-.5,.2-.3-.1-.5-.2c-.1-.1-.2-.3-.2-.5Zm1.2,9.1h-1.1v-7.2h1.1v7.2Z"/><path class="b" d="M79.6,16.7c0,1.2-.3,2.1-.9,2.7s-1.4,1-2.4,1c-.6,0-1.2-.2-1.7-.5s-.9-.7-1.1-1.3c-.3-.6-.4-1.2-.4-2,0-1.2,.3-2.1,.9-2.7,.6-.7,1.4-1,2.4-1s1.8,.3,2.4,1c.5,.7,.8,1.6,.8,2.8Zm-5.5,0c0,.9,.2,1.6,.5,2.1s.9,.7,1.6,.7,1.2-.2,1.6-.7,.6-1.2,.6-2.1-.2-1.6-.6-2.1-.9-.7-1.6-.7-1.2,.2-1.6,.7c-.3,.5-.5,1.1-.5,2.1Z"/><path class="b" d="M86.4,20.3v-4.6c0-.6-.1-1-.4-1.3s-.7-.4-1.2-.4c-.7,0-1.3,.2-1.6,.6s-.5,1.1-.5,2v3.8h-1.1v-7.2h.9l.2,1h.1c.2-.4,.5-.6,.9-.8s.8-.3,1.3-.3c.9,0,1.5,.2,1.9,.6s.7,1.1,.7,2v4.7l-1.2-.1h0Z"/></g></svg>