<svg xmlns="http://www.w3.org/2000/svg" width="7.97" height="22.51" viewBox="0 0 7.97 22.51"><title>info_icon</title><path d="M467.53,584.48l-3.35,11.92a9,9,0,0,0-.34,1.43,0.62,0.62,0,0,0,.16.44,0.49,0.49,0,0,0,.37.17,1,1,0,0,0,.61-0.27,10.12,10.12,0,0,0,2-2.17l0.59,0.4a12.55,12.55,0,0,1-2.72,3,3.62,3.62,0,0,1-2.19.89,1.61,1.61,0,0,1-1.14-.41,1.36,1.36,0,0,1-.44-1,8.69,8.69,0,0,1,.42-2.09l2.21-7.61a12.3,12.3,0,0,0,.53-2.34,0.78,0.78,0,0,0-.26-0.6,1,1,0,0,0-.71-0.24,12.58,12.58,0,0,0-1.56.19v-0.65Zm-0.21-6.73a1.62,1.62,0,0,1,1.2.5,1.64,1.64,0,0,1,.49,1.19,1.66,1.66,0,0,1-.5,1.2,1.61,1.61,0,0,1-1.19.51,1.73,1.73,0,0,1-1.71-1.71,1.62,1.62,0,0,1,.5-1.19A1.65,1.65,0,0,1,467.32,577.75Z" transform="translate(-461.03 -577.75)" style="fill:#fff"/></svg>