<svg id="Layer_1" data-name="Layer 1" xmlns="http://www.w3.org/2000/svg" width="33.6" height="33.4" viewBox="0 0 33.6 33.4"><defs><style>.cls-1{fill:none;stroke:white;stroke-miterlimit:10;stroke-width:2px;}.cls-2{isolation:isolate;}.cls-3{fill:white;}</style></defs><title>help</title><ellipse class="cls-1" cx="16.8" cy="16.7" rx="15.8" ry="15.7"/><g class="cls-2"><path class="cls-3" d="M14.59,19.55V18.68a3.84,3.84,0,0,1,.49-2,6.37,6.37,0,0,1,1.79-1.78,7.44,7.44,0,0,0,1.65-1.44,2.07,2.07,0,0,0,.4-1.24,1.34,1.34,0,0,0-.57-1.17,2.75,2.75,0,0,0-1.6-.4,9.24,9.24,0,0,0-4.07,1.16l-1.3-2.58A11.44,11.44,0,0,1,17,7.78a6,6,0,0,1,3.9,1.17,3.8,3.8,0,0,1,1.45,3.11,4.11,4.11,0,0,1-.6,2.24,8.43,8.43,0,0,1-2.26,2.12A7,7,0,0,0,18,17.7a2,2,0,0,0-.3,1.14v0.71H14.59Zm-0.38,4a2,2,0,0,1,.54-1.5,2.19,2.19,0,0,1,1.56-.51,2.13,2.13,0,0,1,1.53.52,2,2,0,0,1,.54,1.49,2,2,0,0,1-.55,1.47,2.08,2.08,0,0,1-1.52.54,2.15,2.15,0,0,1-1.55-.52A2,2,0,0,1,14.21,23.58Z" transform="translate(0 0)"/></g></svg>