<?xml version="1.0" encoding="UTF-8"?><svg id="a" xmlns="http://www.w3.org/2000/svg" width="31.57" height="28.2" viewBox="0 0 31.57 28.2"><defs><style>.c{fill:#fff;}.d{fill:#005cb9;}</style></defs><rect class="d" width="31.57" height="28.2"/><g id="b"><path class="c" d="M29.12,14.97c0-.17-.08-.42-.25-.5L16.49,2.5c-.25-.25-.75-.25-1,0h0L3.02,14.47c-.25,.25-.25,.75,0,1,.17,.17,.33,.25,.5,.25s.33-.08,.5-.17l2.76-2.68v10.54c-.17,1.09,.5,2.09,1.59,2.26h5.35c.42,0,.75-.33,.75-.75v-7.53h2.93v7.53c0,.42,.33,.75,.75,.75h4.69c1.09,.17,2.09-.59,2.18-1.67V12.8l2.76,2.68c.17,.08,.33,.17,.59,.17,.17,0,.42-.08,.5-.25,.17,0,.25-.25,.25-.42m-10.46,1.09c-.17-.17-.33-.25-.5-.25h-4.35c-.42,0-.75,.33-.75,.75v7.53h-4.02c-.33,.08-.67-.17-.75-.59V11.46l7.7-7.36,7.7,7.36v11.96c.08,.33-.17,.67-.59,.75h-4.18v-7.53c0-.25-.08-.42-.25-.59h0Z"/></g></svg>