<?xml version="1.0" encoding="UTF-8"?><svg id="a" xmlns="http://www.w3.org/2000/svg" width="33.8" height="33.4" viewBox="0 0 33.8 33.4"><defs><style>.e{fill:#005cb9;}.f{fill:none;stroke:#005cb9;stroke-miterlimit:10;stroke-width:2px;}</style></defs><g id="b"><g id="c"><g id="d"><ellipse class="f" cx="16.9" cy="16.7" rx="15.9" ry="15.7"/><path class="e" d="M19.1,12.8l-2.9,10.2-.3,1.2c0,.1,0,.3,.1,.4,.1,.1,.2,.1,.3,.1,.2,0,.4-.1,.5-.2,.7-.5,1.2-1.2,1.7-1.8l.5,.3c-.6,1-1.4,1.8-2.3,2.5-.5,.5-1.2,.7-1.9,.8-.4,0-.7-.1-1-.3-.3-.2-.4-.6-.4-.9,0-.6,.2-1.2,.4-1.8l1.9-6.5c.2-.7,.4-1.3,.5-2,0-.2-.1-.4-.2-.5-.2-.1-.4-.2-.6-.2-.5,0-.9,.1-1.3,.2v-.5l5-1Zm-.2-5.7c.8,0,1.4,.6,1.4,1.4s-.6,1.5-1.4,1.5c-.4,0-.7-.2-1-.4-.3-.3-.4-.6-.4-1s.2-.7,.4-1c.2-.3,.6-.5,1-.5Z"/></g></g></g></svg>