<svg xmlns="http://www.w3.org/2000/svg" width="35.2" height="31.2" viewBox="0 0 35.2 31.2"><title>home</title><path d="M55.6,31.38a0.85,0.85,0,0,0-.3-0.69l-16.59-16a1,1,0,0,0-1.38,0l-16.64,16a1,1,0,0,0,.69,1.68,1,1,0,0,0,.69-0.25l3.7-3.55V42.64a2.62,2.62,0,0,0,3,3h6.32a1,1,0,0,0,1-1V34.53H39.9V44.61a1,1,0,0,0,1,1h6.37a2.62,2.62,0,0,0,3-3V28.52l3.7,3.6a1.12,1.12,0,0,0,.74.25,1,1,0,0,0,.69-0.3,1,1,0,0,0,.25-0.69m-14,1.47a1,1,0,0,0-.69-0.3H35.06a1,1,0,0,0-1,1V43.63H28.74a0.87,0.87,0,0,1-1-1v-16L38,16.77l10.22,9.87v16a0.87,0.87,0,0,1-1,1H41.87V33.55A1,1,0,0,0,41.58,32.86Z" transform="translate(-20.4 -14.4)" style="fill:#ae1f21"/></svg>