<?xml version="1.0" encoding="UTF-8"?><svg id="a" xmlns="http://www.w3.org/2000/svg" width="109" height="33" viewBox="0 0 109 33"><defs><style>.c{fill:#fff;}</style></defs><g id="b"><rect width="109" height="33"/><rect class="c" x="78.58" y="18.25" width="8.47" height="1.4" transform="translate(10.86 64.11) rotate(-45)"/><rect class="c" x="82.08" y="9.85" width="1.4" height="8.47" transform="translate(14.29 62.66) rotate(-45)"/><rect class="c" x="69.97" y="15.8" width="14.63" height="1.4"/><path class="c" d="M28.47,15.37h3.4v4.86c-.53,.17-1.06,.29-1.61,.38-.63,.09-1.26,.14-1.9,.13-1.32,.08-2.6-.42-3.53-1.35-.89-1.05-1.35-2.4-1.26-3.78-.02-.95,.2-1.89,.63-2.73,.4-.77,1.03-1.4,1.8-1.8,.85-.43,1.8-.64,2.75-.62,1.03-.01,2.05,.19,3,.59l-.45,1c-.82-.36-1.7-.56-2.6-.57-1.06-.06-2.1,.34-2.85,1.09-.71,.83-1.07,1.91-1,3-.08,1.11,.28,2.21,1,3.07,.78,.73,1.84,1.09,2.9,1,.67,0,1.35-.08,2-.24v-3h-2.28v-1.03Z"/><path class="c" d="M40.56,16.85c.06,1.04-.27,2.06-.92,2.86-.66,.69-1.59,1.06-2.55,1-.63,.01-1.24-.15-1.78-.47-.52-.32-.94-.79-1.2-1.35-.29-.65-.44-1.35-.42-2.06-.06-1.02,.26-2.03,.9-2.83,.66-.69,1.59-1.06,2.54-1,.94-.05,1.86,.31,2.5,1,.66,.8,.99,1.82,.93,2.85Zm-5.71,0c-.04,.76,.16,1.51,.58,2.15,.85,.93,2.29,1,3.22,.16,.06-.05,.11-.1,.16-.16,.43-.65,.63-1.42,.58-2.19,.05-.77-.15-1.53-.58-2.17-.41-.51-1.05-.79-1.71-.74-.65-.04-1.27,.23-1.68,.73-.43,.66-.63,1.44-.57,2.22Z"/><path class="c" d="M49.43,20.6h-1.16V11.6h-3.16v-1h7.49v1h-3.17v9Z"/><path class="c" d="M60.4,16.85c.06,1.04-.27,2.06-.92,2.86-.66,.69-1.59,1.06-2.55,1-.63,.01-1.24-.15-1.78-.47-.52-.32-.94-.79-1.2-1.35-.29-.65-.44-1.35-.42-2.06-.06-1.02,.26-2.03,.9-2.83,.66-.7,1.61-1.07,2.57-1,.94-.05,1.86,.31,2.5,1,.65,.8,.97,1.82,.9,2.85Zm-5.71,0c-.04,.76,.16,1.51,.58,2.15,.85,.93,2.29,1,3.22,.16,.06-.05,.11-.1,.16-.16,.43-.65,.63-1.42,.58-2.19,.05-.77-.15-1.53-.58-2.17-.41-.51-1.05-.79-1.71-.74-.65-.04-1.27,.23-1.68,.73-.43,.66-.63,1.44-.57,2.22Z"/></g></svg>