<?xml version="1.0" encoding="UTF-8"?><svg id="a" xmlns="http://www.w3.org/2000/svg" width="81.7" height="32.7" viewBox="0 0 81.7 32.7"><defs><style>.e{fill:#fff;}</style></defs><g id="b"><g id="c"><g id="d"><rect width="81.7" height="32.7"/><path class="e" d="M25.8,17.7c0,.7-.3,1.5-.9,1.9-.7,.5-1.6,.7-2.4,.7-.9,0-1.7-.1-2.5-.4v-1c.4,.2,.8,.3,1.2,.4,.4,.1,.9,.1,1.3,.1,.6,0,1.1-.1,1.6-.4,.4-.3,.6-.7,.5-1.1,0-.3-.1-.5-.2-.8l-.6-.6c-.4-.2-.9-.4-1.4-.6-.7-.2-1.3-.6-1.9-1.1-.4-.5-.6-1.1-.6-1.7,0-.7,.3-1.3,.8-1.7,.6-.4,1.3-.7,2.1-.6,.9,0,1.7,.2,2.5,.5l-.3,.9c-.7-.3-1.4-.5-2.2-.5-.5,0-.9,.1-1.3,.4-.3,.2-.5,.6-.5,1,0,.3,.1,.5,.2,.8,.1,.2,.4,.4,.6,.6,.4,.2,.8,.4,1.3,.6,.7,.2,1.4,.6,2,1.1,.5,.4,.7,.9,.7,1.5Z"/><path class="e" d="M28.6,13.2v4.5c0,.5,.1,.9,.4,1.3,.3,.3,.8,.5,1.2,.4,.6,0,1.2-.2,1.6-.6,.4-.6,.6-1.3,.5-2v-3.6h1v7h-.9l-.2-.9h-.1c-.2,.3-.5,.6-.9,.8-.4,.2-.9,.3-1.3,.3-.7,.1-1.4-.2-1.9-.6-.5-.5-.7-1.2-.6-1.9v-4.6l1.2-.1h0Z"/><path class="e" d="M38.8,13.1c.8,0,1.6,.3,2.1,.9,1,1.6,1,3.7,0,5.3-.5,.7-1.3,1-2.1,1-.4,0-.9-.1-1.2-.3-.4-.2-.7-.4-.9-.8h-.1l-.2,.9h-.8V10.3h1v3.8h.1c.4-.7,1.2-1.1,2.1-1Zm-.2,.9c-.6-.1-1.2,.2-1.6,.6-.6,1.3-.6,2.9,0,4.2,.4,.4,1,.7,1.6,.6,.6,0,1.1-.2,1.5-.7,.3-.6,.5-1.3,.5-2s-.1-1.4-.5-2c-.3-.5-.9-.7-1.5-.7h0Z"/><path class="e" d="M52.4,20.2v-4.5c0-.4-.1-.9-.4-1.2-.3-.3-.7-.5-1.1-.4-.5,0-1.1,.2-1.5,.6-.3,.5-.5,1.1-.5,1.7v3.9h-1.1v-4.5c0-.4-.1-.9-.4-1.2-.3-.3-.7-.5-1.1-.4-.6,0-1.1,.2-1.5,.6-.4,.6-.5,1.3-.5,2v3.6h-1v-7h.9l.2,1h0c.2-.3,.5-.6,.8-.8,.4-.2,.8-.3,1.2-.3,.9-.1,1.8,.4,2.1,1.2h0c.2-.4,.5-.7,.9-.9s.9-.3,1.3-.3c.6-.1,1.3,.2,1.8,.6,.4,.5,.7,1.2,.6,1.9v4.5l-.7-.1h0Z"/><path class="e" d="M55.5,11.3c0-.2,0-.4,.2-.5,.3-.2,.6-.2,.9,0,.1,.1,.2,.3,.2,.5s0,.4-.2,.5c-.2,.2-.6,.2-.9,0-.1-.1-.2-.3-.2-.5Zm1.2,8.9h-1.1v-7h1l.1,7h0Z"/><path class="e" d="M61.1,19.4h.5l.4-.1v.8c-.2,.1-.3,.1-.5,.1h-.6c-1,.1-1.9-.6-2-1.6v-4.6h-1v-.5l1-.5,.4-1.5h.7v1.6h2v.9h-2v4.1c0,.4,.1,.7,.3,1,.2,.2,.5,.3,.8,.3Z"/></g></g></g></svg>