<?xml version="1.0" encoding="UTF-8"?><svg id="a" xmlns="http://www.w3.org/2000/svg" width="91.7" height="32.7" viewBox="0 0 91.7 32.7"><defs><style>.e{fill:#fff;}</style></defs><g id="b"><g id="c"><g id="d"><rect width="91.7" height="32.7"/><path class="e" d="M17.8,10.9h1.2l-3.4,9.3h-1.1l-3.3-9.3h1.1l2.1,6c.2,.7,.4,1.3,.6,2,.2-.7,.4-1.3,.6-2l2.2-6Z"/><path class="e" d="M20,11.3c0-.2,0-.4,.2-.5,.3-.2,.6-.2,.9,0,.1,.1,.2,.3,.2,.5s0,.4-.2,.5c-.2,.2-.6,.2-.9,0-.2-.1-.2-.3-.2-.5Zm1.1,8.9h-1v-7h1v7h0Z"/><path class="e" d="M26.3,20.3c-.9,0-1.8-.3-2.4-.9-.6-.7-.9-1.7-.9-2.6-.1-1,.2-1.9,.8-2.7,.5-.7,1.4-1,2.2-1s1.5,.3,2.1,.9c.5,.6,.8,1.4,.8,2.3v.7h-4.8c0,.7,.2,1.3,.6,1.9,.4,.4,1,.7,1.6,.6,.8,0,1.5-.2,2.2-.5v.9c-.3,.2-.7,.3-1.1,.4h-1.1Zm-.3-6.3c-.5,0-1,.2-1.3,.5-.4,.4-.6,1-.6,1.5h3.6c0-.5-.1-1.1-.4-1.5-.4-.3-.8-.5-1.3-.5Z"/><path class="e" d="M36.4,20.2l-1.3-4.1c-.1-.2-.2-.8-.5-1.7h0c-.2,.7-.3,1.3-.4,1.7l-1.3,4.1h-1.2l-1.9-7h1.1l1,4c.2,.6,.3,1.2,.4,1.8h0c0-.2,.1-.6,.2-.9,.1-.4,.2-.7,.3-.9l1.3-4h1.2l1.2,4c.2,.6,.4,1.2,.5,1.9h0c0-.2,.1-.5,.1-.7,.1-.3,.5-2,1.3-5.1h1.1l-1.9,7-1.2-.1h0Z"/><path class="e" d="M45.4,16.3v3.9h-1.1V10.9h2.5c.9-.1,1.8,.2,2.5,.6,.6,.5,.9,1.2,.8,2,0,1.2-.7,2.2-1.9,2.5l2.5,4.2h-1.3l-2.2-3.9h-1.8Zm0-.9h1.5c.6,.1,1.2-.1,1.7-.4,.4-.3,.6-.8,.5-1.4,0-.5-.2-1-.5-1.3-.5-.3-1.1-.5-1.7-.4h-1.4v3.5h-.1Z"/><path class="e" d="M55.1,20.3c-.9,0-1.8-.3-2.4-.9-.6-.7-.9-1.7-.9-2.6-.1-1,.2-1.9,.8-2.7,.5-.7,1.4-1,2.2-1s1.5,.3,2.1,.9c.5,.6,.8,1.4,.8,2.3v.7h-4.8c0,.7,.2,1.3,.6,1.9,.4,.4,1,.7,1.7,.6,.8,0,1.5-.2,2.2-.5v.9c-.3,.2-.7,.3-1.1,.4h-1.2Zm-.3-6.3c-.5,0-1,.2-1.3,.5-.3,.5-.5,1-.6,1.5h3.6c0-.5-.1-1.1-.4-1.5-.3-.4-.8-.5-1.3-.5h0Z"/><path class="e" d="M64,18.3c0,.6-.2,1.2-.7,1.5-.6,.4-1.3,.6-2,.5-.7,0-1.5-.1-2.2-.4v-1c.3,.2,.7,.3,1.1,.4,.4,.1,.7,.1,1.1,.1s.9-.1,1.3-.3c.4-.3,.6-.8,.3-1.2-.1-.1-.1-.2-.2-.3-.4-.3-.9-.5-1.4-.6-.5-.2-.9-.4-1.4-.6-.2-.2-.5-.4-.6-.6-.1-.3-.2-.5-.2-.8,0-.5,.2-1,.7-1.3,.6-.4,1.2-.5,1.9-.5,.8,0,1.5,.2,2.2,.5l-.4,.9c-.6-.3-1.2-.4-1.9-.4-.4,0-.8,.1-1.1,.2-.2,.1-.4,.4-.4,.6s0,.3,.1,.5,.3,.3,.5,.4c.4,.2,.8,.4,1.2,.5,.6,.2,1.2,.5,1.7,.9,.3,.2,.4,.6,.4,1Z"/><path class="e" d="M66.7,13.2v4.5c0,.5,.1,.9,.4,1.3,.3,.3,.8,.5,1.2,.4,.6,0,1.2-.2,1.6-.6,.4-.6,.6-1.3,.5-2v-3.7h1.1v7h-.9l-.2-.9h-.1c-.2,.3-.5,.6-.9,.8-.4,.2-.9,.3-1.3,.3-.7,.1-1.4-.2-1.9-.6-.5-.5-.7-1.2-.6-1.9v-4.6h1.1Z"/><path class="e" d="M74.7,20.2h-1.1V10.3h1.1v9.9Z"/><path class="e" d="M79.2,19.4h.5l.4-.1v.8c-.2,.1-.3,.1-.5,.1h-.6c-1,.1-1.9-.6-2-1.6v-4.6h-1v-.5l1-.4,.4-1.5h.6v1.6h2v.8h-2v4.1c0,.4,.1,.7,.3,1,.3,.2,.6,.3,.9,.3Z"/></g></g></g></svg>