<?xml version="1.0" encoding="UTF-8"?><svg id="a" xmlns="http://www.w3.org/2000/svg" width="91.7" height="32.7" viewBox="0 0 91.7 32.7"><defs><style>.e{fill:#fff;}</style></defs><g id="b"><g id="c"><g id="d"><rect width="91.7" height="32.7"/><path class="e" d="M17.8,10.9h1.2l-3.4,9.3h-1.1l-3.3-9.3h1.1l2.1,6c.2,.7,.4,1.3,.6,2,.2-.7,.4-1.3,.6-2l2.2-6Z"/><path class="e" d="M20,11.3c0-.2,0-.4,.2-.5,.3-.2,.6-.2,.9,0,.1,.1,.2,.3,.2,.5s0,.4-.2,.5c-.2,.2-.6,.2-.9,0-.2-.1-.2-.3-.2-.5Zm1.1,8.9h-1v-7h1v7h0Z"/><path class="e" d="M26.3,20.3c-.9,0-1.8-.3-2.4-.9-.6-.7-1-1.7-.9-2.6-.1-1,.2-1.9,.8-2.7,.5-.7,1.4-1,2.2-1s1.5,.3,2.1,.9c.5,.6,.8,1.4,.8,2.3v.7h-4.8c0,.7,.2,1.3,.6,1.9,.4,.4,1,.7,1.6,.6,.8,0,1.5-.2,2.2-.5v.9c-.3,.2-.7,.3-1.1,.4h-1.1Zm-.3-6.3c-.5,0-1,.2-1.3,.5-.4,.4-.6,1-.6,1.5h3.6c0-.5-.1-1.1-.4-1.5-.4-.3-.8-.5-1.3-.5Z"/><path class="e" d="M36.4,20.2l-1.3-4.1c-.1-.2-.2-.8-.5-1.7h0c-.2,.7-.3,1.3-.4,1.7l-1.3,4.1h-1.2l-1.9-7h1.1l1,4c.2,.6,.3,1.2,.4,1.9h.1c0-.2,.1-.6,.2-.9s.2-.7,.3-.9l1.3-4h1.1l1.2,4c.2,.6,.4,1.2,.5,1.8h0c0-.2,.1-.5,.1-.7,.1-.3,.5-2,1.3-5.1h1.1l-1.9,7-1.2-.1h0Z"/><path class="e" d="M44.3,20.2V10.9h1.1v9.3h-1.1Z"/><path class="e" d="M56.7,20.2v-4.5c0-.4-.1-.9-.4-1.2-.3-.3-.7-.5-1.1-.4-.5,0-1.1,.2-1.5,.6-.4,.5-.5,1.1-.5,1.7v3.9h-1.1v-4.5c0-.4-.1-.9-.4-1.2-.3-.3-.7-.5-1.1-.4-.6,0-1.1,.2-1.5,.6-.4,.6-.5,1.3-.5,1.9v3.6h-1v-7h.9l.2,1h0c.2-.3,.5-.6,.8-.8,.4-.2,.8-.3,1.2-.3,.9-.1,1.8,.4,2.1,1.2h0c.2-.4,.5-.7,.9-.9s.9-.3,1.3-.3c.6-.1,1.3,.2,1.8,.6,.4,.5,.7,1.2,.6,1.9v4.5h-.7Z"/><path class="e" d="M64.2,20.2l-.2-1h0c-.3,.4-.6,.7-1,.9-.4,.2-.8,.2-1.3,.2-.6,0-1.2-.2-1.6-.5-.4-.4-.6-1-.6-1.5,0-1.4,1.1-2.1,3.4-2.2h1.1v-.4c0-.4-.1-.9-.3-1.2-.3-.3-.7-.4-1.2-.4-.7,0-1.4,.2-2,.5l-.3-.8c.4-.2,.7-.3,1.1-.4s.8-.2,1.2-.2c.7-.1,1.3,.1,1.8,.6,.4,.5,.7,1.1,.6,1.8v4.8l-.7-.2h0Zm-2.4-.8c.6,0,1.1-.2,1.5-.5,.4-.4,.6-1,.6-1.5v-.6h-1c-.6,0-1.2,.1-1.8,.4-.4,.2-.6,.6-.6,1.1,0,.3,.1,.6,.3,.9,.3,.1,.6,.2,1,.2Z"/><path class="e" d="M72.8,13.2v.7l-1.3,.1c.3,.4,.5,.9,.5,1.4,0,.6-.2,1.2-.7,1.6s-1.2,.7-1.9,.6h-.6c-.4,.1-.7,.5-.7,.9,0,.2,.1,.3,.2,.4,.3,.1,.5,.2,.8,.1h1.2c.6,0,1.2,.1,1.7,.5,.4,.3,.6,.8,.6,1.4,0,.7-.3,1.4-.9,1.8-.8,.5-1.8,.7-2.7,.6-.7,0-1.5-.1-2.1-.5-.5-.3-.8-.9-.7-1.4,0-.4,.1-.8,.4-1.1,.3-.3,.7-.5,1.1-.6-.2-.1-.3-.2-.4-.4-.1-.2-.2-.4-.2-.6s.1-.5,.2-.7c.2-.2,.4-.4,.6-.5-.4-.2-.7-.4-.9-.8-.2-.4-.3-.8-.3-1.2,0-.7,.2-1.3,.7-1.8,.5-.4,1.2-.7,1.9-.6,.3,0,.7,0,1,.1h2.5Zm-5.5,8.1c0,.4,.2,.7,.5,.9,.4,.2,.9,.3,1.4,.3,.7,.1,1.4-.1,2-.4,.4-.2,.6-.6,.6-1.1,0-.3-.1-.6-.3-.8-.5-.2-1-.2-1.4-.2h-1.3c-.4,0-.8,.1-1.1,.3-.3,.3-.4,.7-.4,1h0Zm.5-5.9c0,.4,.1,.8,.4,1.1,.3,.3,.7,.4,1.2,.4,.7,.1,1.4-.4,1.5-1.1v-.4c.1-.8-.4-1.5-1.2-1.6h-.4c-.4,0-.8,.1-1.1,.4-.2,.4-.4,.8-.4,1.2Z"/><path class="e" d="M77.2,20.3c-.9,0-1.8-.3-2.4-.9-.6-.7-.9-1.7-.9-2.6-.1-1,.2-1.9,.8-2.7,.5-.7,1.4-1,2.2-1s1.5,.3,2.1,.9c.5,.6,.8,1.4,.8,2.3v.7h-4.8c0,.7,.2,1.3,.6,1.9,.4,.4,1,.7,1.7,.6,.8,0,1.5-.2,2.2-.5v.9c-.3,.2-.7,.3-1.1,.4h-1.2Zm-.3-6.3c-.5,0-1,.2-1.3,.5-.4,.5-.6,1-.6,1.5h3.6c0-.5-.1-1.1-.4-1.5-.3-.4-.8-.6-1.3-.5Z"/></g></g></g></svg>