<svg id="help" xmlns="http://www.w3.org/2000/svg" width="141" height="26" viewBox="0 0 141 26"><defs><style>.cls-1{fill:black;}.cls-2{fill:#fff;}.cls-3{fill:#eb0f0f;}.cls-4{fill:#588122;}.cls-5{fill:#9e9e9e;}</style></defs><title>attempts_help</title><g id="main_content" data-name="main content"><g id="toc7"><g id="attempts"><rect class="cls-1" width="141" height="26"/><path class="cls-2" d="M19.5,16.8l-1.2-3H14.6l-1.1,3H12.4l3.7-9.3H17l3.7,9.3H19.5ZM18,12.9L17,10c-0.1-.4-0.3-0.8-0.4-1.3a5,5,0,0,1-.4,1.3L15,12.9h3Z"/><path class="cls-2" d="M24,16.1h0.5L25,16v0.8a0.9,0.9,0,0,1-.5.1H23.9a1.81,1.81,0,0,1-2-1.6V10.7h-1V10.2l1-.4,0.4-1.5h0.6V9.9h2v0.8h-2v4.1a1.69,1.69,0,0,0,.3,1A1.14,1.14,0,0,0,24,16.1Z"/><path class="cls-2" d="M28.6,16.1h0.5l0.4-.1v0.8a0.9,0.9,0,0,1-.5.1H28.4a1.81,1.81,0,0,1-2-1.6V10.7h-1V10.2l1-.4,0.4-1.5h0.6V9.9h2v0.8h-2v4.1a1.69,1.69,0,0,0,.3,1A1.61,1.61,0,0,0,28.6,16.1Z"/><path class="cls-2" d="M33.9,16.9a3.41,3.41,0,0,1-2.4-.9,4.11,4.11,0,0,1-.9-2.6,3.77,3.77,0,0,1,.8-2.7,2.7,2.7,0,0,1,2.2-1,2.88,2.88,0,0,1,2.1.9,3.57,3.57,0,0,1,.8,2.3v0.7H31.7a3.29,3.29,0,0,0,.6,1.9,2,2,0,0,0,1.7.6,5.45,5.45,0,0,0,2.2-.5v0.9a2,2,0,0,1-1.1.3A4.87,4.87,0,0,1,33.9,16.9Zm-0.3-6.3a1.9,1.9,0,0,0-1.3.5,2.2,2.2,0,0,0-.6,1.5h3.6a2.6,2.6,0,0,0-.4-1.5,2.11,2.11,0,0,0-1.3-.5h0Z"/><path class="cls-2" d="M47.1,16.8V12.3a2.2,2.2,0,0,0-.4-1.3,1.19,1.19,0,0,0-1.1-.4,1.82,1.82,0,0,0-1.4.6,2.62,2.62,0,0,0-.5,1.7v3.9H42.6V12.3a2.2,2.2,0,0,0-.4-1.3,1.19,1.19,0,0,0-1.1-.4,1.68,1.68,0,0,0-1.4.6,3.51,3.51,0,0,0-.5,2v3.7H38.1v-7H39l0.2,1h0.1a3,3,0,0,1,.8-0.8,2.66,2.66,0,0,1,1.2-.3A2,2,0,0,1,43.4,11h0.1a2,2,0,0,1,.9-0.9,3.08,3.08,0,0,1,1.3-.3,2.47,2.47,0,0,1,1.8.6,2.56,2.56,0,0,1,.6,1.9v4.5h-1Z"/><path class="cls-2" d="M53.6,16.9a2.66,2.66,0,0,1-1.2-.3,1.76,1.76,0,0,1-.9-0.8H51.4a4.87,4.87,0,0,1,.1,1.2v2.9H50.4V9.8h0.9l0.2,1h0.1a2.28,2.28,0,0,1,.9-0.8,2.66,2.66,0,0,1,1.2-.3,2.51,2.51,0,0,1,2.1,1,5.06,5.06,0,0,1,0,5.3A2.46,2.46,0,0,1,53.6,16.9Zm-0.2-6.3a1.72,1.72,0,0,0-1.5.6,3.2,3.2,0,0,0-.5,1.9v0.2a3.14,3.14,0,0,0,.5,2.1,1.91,1.91,0,0,0,1.6.6,1.75,1.75,0,0,0,1.4-.7,3.51,3.51,0,0,0,.5-2,3.51,3.51,0,0,0-.5-2,2.13,2.13,0,0,0-1.5-.7h0Z"/><path class="cls-2" d="M60.5,16.1H61l0.4-.1v0.8a0.9,0.9,0,0,1-.5.1H60.3a1.81,1.81,0,0,1-2-1.6V10.7h-1V10.2l1-.4,0.4-1.5h0.6V9.9h2v0.8h-2v4.1a1.69,1.69,0,0,0,.3,1A1.9,1.9,0,0,0,60.5,16.1Z"/><path class="cls-2" d="M67.4,14.9a1.68,1.68,0,0,1-.7,1.5,2.88,2.88,0,0,1-2,.5,5.7,5.7,0,0,1-2.2-.4v-1a3.58,3.58,0,0,0,1.1.4c0.4,0.1.7,0.1,1.1,0.2a3.08,3.08,0,0,0,1.3-.3,0.86,0.86,0,0,0,.3-1.2c-0.1-.1-0.1-0.2-0.2-0.3a6.11,6.11,0,0,0-1.4-.7c-0.5-.2-0.9-0.4-1.4-0.6a3.39,3.39,0,0,1-.6-0.6,2.35,2.35,0,0,1-.2-0.8,1.46,1.46,0,0,1,.7-1.3,3.2,3.2,0,0,1,1.9-.5,5.45,5.45,0,0,1,2.2.5l-0.4.7a4.06,4.06,0,0,0-1.9-.4,3.59,3.59,0,0,0-1.1.2,0.84,0.84,0,0,0-.4.7,0.9,0.9,0,0,0,.1.5,1,1,0,0,0,.5.4,6.12,6.12,0,0,0,1.2.5,5.56,5.56,0,0,1,1.7.9A1.5,1.5,0,0,1,67.4,14.9Z"/><circle class="cls-3" cx="83.3" cy="13" r="6.7"/><circle class="cls-4" cx="102.6" cy="13" r="6.7"/><circle class="cls-5" cx="121.9" cy="13" r="6.7"/></g></g></g></svg>