<?xml version="1.0" encoding="UTF-8"?><svg id="a" xmlns="http://www.w3.org/2000/svg" width="93.7" height="32.7" viewBox="0 0 93.7 32.7"><defs><style>.b{fill:#fff;}</style></defs><rect width="93.7" height="32.7"/><g><path class="b" d="M18.3,13.5c0,.9-.3,1.7-1,2.2-.8,.6-1.8,.8-2.8,.8h-1.1v3.8h-1.1V10.7h2.5c2.3,0,3.5,.9,3.5,2.8Zm-4.9,2h1c.7,.1,1.5-.1,2.1-.5,.5-.4,.7-.9,.7-1.5,0-.5-.2-1.1-.6-1.4-.6-.4-1.3-.5-1.9-.5h-1.2c-.1,.1-.1,4-.1,3.9Z"/><path class="b" d="M23.4,13c.3,0,.6,0,.9,.1l-.1,1c-.3-.1-.6-.1-.9-.1-.6,0-1.1,.3-1.5,.7-.4,.5-.6,1.1-.6,1.8v3.8h-1.1v-7.2h.9l.1,1.3h0c.2-.4,.6-.8,1-1.1,.4-.2,.9-.3,1.3-.3Z"/><path class="b" d="M25.5,11.1c0-.2,0-.4,.2-.6,.3-.2,.7-.2,.9,0,.1,.1,.2,.3,.2,.5s-.1,.4-.2,.6c-.3,.2-.7,.2-.9,0-.1-.1-.2-.3-.2-.5Zm1.2,9.1h-1.1v-7.2h1.1v7.2h0Z"/><path class="b" d="M33.9,20.2v-4.6c0-.5-.1-.9-.4-1.3-.3-.3-.8-.5-1.2-.4-.6-.1-1.2,.2-1.6,.6-.4,.6-.6,1.3-.5,2v3.8h-1.2v-7.2h.9l.2,1h0c.2-.4,.5-.7,.9-.8,.4-.2,.9-.3,1.4-.2,.7-.1,1.4,.2,2,.6,.5,.5,.7,1.3,.7,2v4.7l-1.2-.2h0Z"/><path class="b" d="M39.5,19.5h.5l.4-.1v.8c-.2,.1-.3,.1-.5,.1s-.4,.1-.6,.1c-1,.1-2-.6-2.1-1.7v-4.8h-1v-.5l1-.4,.5-1.5h.6v1.7h2.1v.8h-2.1v4.2c0,.4,.1,.7,.3,1,.3,.2,.6,.3,.9,.3Z"/><path class="b" d="M46.7,16.3v4h-1.1V10.7h2.6c.9-.1,1.8,.2,2.6,.7,.6,.5,.9,1.2,.8,2,.1,1.2-.7,2.3-1.9,2.6l2.6,4.3h-1.3l-2.3-4h-2Zm0-1h1.5c.6,0,1.2-.1,1.7-.5,.4-.4,.6-.9,.5-1.4,.1-.5-.2-1-.6-1.4-.5-.3-1.2-.5-1.8-.4h-1.4v3.7h.1Z"/><path class="b" d="M56.7,20.4c-.9,0-1.9-.3-2.5-1s-1-1.7-.9-2.7c0-1,.3-1.9,.9-2.7,.6-.7,1.4-1,2.3-1,.8,0,1.6,.3,2.1,.9,.5,.7,.8,1.5,.8,2.3v.7h-4.9c0,.7,.2,1.3,.6,1.9,.4,.5,1.1,.7,1.7,.6,.8,0,1.6-.1,2.3-.4v1c-.4,.2-.7,.3-1.1,.4h-1.3Zm-.3-6.5c-.5,0-1,.2-1.4,.6-.4,.4-.6,1-.6,1.6h3.7c0-.6-.1-1.1-.5-1.6-.2-.5-.7-.7-1.2-.6h0Z"/><path class="b" d="M65.8,18.3c0,.6-.3,1.2-.8,1.5-.6,.4-1.4,.6-2.1,.5-.8,0-1.5-.1-2.2-.5v-1c.4,.2,.7,.3,1.1,.4,.4,.1,.8,.1,1.1,.1,.5,0,.9-.1,1.3-.3,.4-.3,.6-.8,.3-1.3-.1-.1-.1-.2-.2-.3-.3,0-.8-.2-1.3-.4s-1-.4-1.4-.6c-.3-.2-.5-.4-.6-.6-.1-.3-.2-.5-.2-.8,0-.6,.3-1.1,.7-1.4,.6-.4,1.3-.6,2-.5,.8,0,1.5,.2,2.3,.5l-.4,.9c-.6-.3-1.3-.4-2-.4-.4,0-.8,.1-1.2,.2-.2,.1-.4,.4-.4,.7,0,.2,0,.3,.2,.5,.1,.2,.3,.3,.5,.4,.4,.2,.8,.4,1.2,.5,.6,.2,1.2,.5,1.7,.9,.2,.2,.4,.6,.4,1Z"/><path class="b" d="M68.6,13.1v4.6c0,.5,.1,.9,.4,1.3,.3,.3,.8,.5,1.2,.4,.6,.1,1.2-.2,1.6-.6,.4-.6,.6-1.3,.5-2v-3.7h1.1v7.2h-.9l-.2-1h-.1c-.2,.4-.5,.6-.9,.8-.4,.2-.9,.3-1.3,.3-.7,.1-1.4-.2-2-.6-.5-.5-.7-1.3-.7-2v-4.6h1.3v-.1Z"/><path class="b" d="M76.9,20.2h-1.1V10.1h1.1v10.1h0Z"/><path class="b" d="M81.5,19.5h.6l.4-.1v.8c-.2,.1-.3,.1-.5,.1s-.4,.1-.6,.1c-1,.1-2-.6-2.1-1.7v-4.8h-1v-.5l1-.4,.5-1.5h.6v1.7h2.1v.8h-2.1v4.2c0,.4,.1,.7,.3,1,.2,.2,.5,.3,.8,.3Z"/></g></svg>