<?xml version="1.0" encoding="UTF-8"?><svg id="a" xmlns="http://www.w3.org/2000/svg" width="130.7" height="32.7" viewBox="0 0 130.7 32.7"><defs><style>.b{fill:#fff;}.c{isolation:isolate;}</style></defs><rect width="130.7" height="32.7"/><g class="c"><path class="b" d="M12.5,16.3v4h-1.1V10.7h2.6c1.2,0,2,.2,2.6,.7,.6,.4,.8,1.1,.8,2,0,1.3-.6,2.1-1.9,2.6l2.6,4.3h-1.3l-2.3-4h-2Zm0-1h1.5c.8,0,1.4-.2,1.7-.5,.4-.3,.5-.8,.5-1.4s-.2-1.1-.6-1.4c-.4-.3-1-.4-1.8-.4h-1.4l.1,3.7h0Z"/><path class="b" d="M22.5,20.4c-1.1,0-1.9-.3-2.5-1-.6-.6-.9-1.5-.9-2.7s.3-2.1,.9-2.8,1.3-1,2.3-1c.9,0,1.6,.3,2.1,.9,.5,.6,.8,1.4,.8,2.3v.7h-4.9c0,.8,.2,1.5,.6,1.9s1,.7,1.7,.7c.8,0,1.5-.2,2.3-.5v1c-.4,.2-.7,.3-1.1,.4-.4,0-.8,.1-1.3,.1Zm-.3-6.5c-.6,0-1,.2-1.4,.6-.3,.4-.5,.9-.6,1.6h3.8c0-.7-.2-1.2-.5-1.6-.3-.4-.7-.6-1.3-.6Z"/><path class="b" d="M28.6,20.3l-2.7-7.2h1.1l1.5,4.2c.3,1,.6,1.6,.6,1.9h.1c0-.2,.2-.7,.5-1.4,.3-.7,.8-2.3,1.7-4.7h1.2l-2.7,7.2h-1.3Z"/><path class="b" d="M33.6,11.2c0-.2,.1-.4,.2-.5,.1-.1,.3-.2,.5-.2s.3,.1,.5,.2c.1,.1,.2,.3,.2,.5s-.1,.4-.2,.5c-.1,.1-.3,.2-.5,.2s-.3-.1-.5-.2c-.1-.1-.2-.3-.2-.5Zm1.2,9.1h-1.1v-7.2h1.1v7.2Z"/><path class="b" d="M40.1,20.4c-1.1,0-1.9-.3-2.5-1-.6-.6-.9-1.5-.9-2.7s.3-2.1,.9-2.8,1.3-1,2.3-1c.9,0,1.6,.3,2.1,.9,.5,.6,.8,1.4,.8,2.3v.7h-4.9c0,.8,.2,1.5,.6,1.9s1,.7,1.7,.7c.8,0,1.5-.2,2.3-.5v1c-.4,.2-.7,.3-1.1,.4-.4,0-.8,.1-1.3,.1Zm-.3-6.5c-.6,0-1,.2-1.4,.6-.3,.4-.5,.9-.6,1.6h3.7c0-.7-.2-1.2-.5-1.6-.2-.4-.6-.6-1.2-.6Z"/><path class="b" d="M50.4,20.3l-1.3-4.2c-.1-.3-.2-.8-.5-1.8h-.1c-.2,.8-.3,1.4-.5,1.8l-1.4,4.2h-1.3l-2-7.2h1.1c.5,1.8,.8,3.2,1.1,4.1,.2,.9,.4,1.6,.4,1.9h.1c0-.2,.1-.6,.2-1,.1-.4,.2-.7,.3-.9l1.3-4.1h1.2l1.3,4.1c.2,.7,.4,1.4,.5,1.9h.1c0-.2,.1-.4,.1-.7,.1-.3,.5-2.1,1.4-5.3h1.1l-2,7.2h-1.1Z"/><path class="b" d="M66.9,15.5c0,1.2-.2,2.2-.7,3.1-.5,.8-1.2,1.4-2.1,1.6l2.3,2.4h-1.6l-1.9-2.2h-.4c-1.4,0-2.5-.4-3.3-1.3s-1.1-2.1-1.1-3.6c0-1.6,.4-2.8,1.1-3.6,.8-.9,1.9-1.3,3.3-1.3s2.4,.4,3.2,1.3c.8,.8,1.2,2,1.2,3.6Zm-7.6,0c0,1.3,.3,2.3,.8,2.9,.6,.7,1.4,1,2.4,1,1.1,0,1.9-.3,2.4-1s.8-1.6,.8-2.9-.3-2.3-.8-2.9-1.3-1-2.4-1-1.9,.3-2.4,1c-.5,.6-.8,1.6-.8,2.9Z"/><path class="b" d="M69.9,13.1v4.6c0,.6,.1,1,.4,1.3s.7,.4,1.2,.4c.7,0,1.3-.2,1.6-.6,.3-.4,.5-1.1,.5-2v-3.8h1.1v7.2h-.9l-.2-1h-.1c-.2,.4-.5,.6-.9,.8s-.8,.3-1.3,.3c-.9,0-1.5-.2-2-.6-.4-.4-.7-1.1-.7-2v-4.7h1.3v.1Z"/><path class="b" d="M80.1,20.4c-1.1,0-1.9-.3-2.5-1s-.9-1.5-.9-2.7,.3-2.1,.9-2.8,1.3-1,2.3-1c.9,0,1.6,.3,2.1,.9,.5,.6,.8,1.4,.8,2.3v.7h-4.9c0,.8,.2,1.5,.6,1.9s1,.7,1.7,.7c.8,0,1.5-.2,2.3-.5v1c-.4,.2-.7,.3-1.1,.4-.4,0-.8,.1-1.3,.1Zm-.3-6.5c-.6,0-1,.2-1.4,.6-.3,.4-.5,.9-.6,1.6h3.7c0-.7-.2-1.2-.5-1.6-.2-.4-.6-.6-1.2-.6Z"/><path class="b" d="M89.2,18.3c0,.7-.2,1.2-.7,1.5-.5,.4-1.2,.5-2.1,.5s-1.7-.2-2.2-.5v-1c.3,.2,.7,.3,1.1,.4s.8,.2,1.1,.2c.6,0,1-.1,1.3-.3s.5-.5,.5-.8-.1-.5-.4-.7c-.2-.2-.7-.4-1.4-.7-.7-.2-1.1-.5-1.4-.6-.3-.2-.5-.4-.6-.6-.1-.2-.2-.5-.2-.8,0-.6,.2-1,.7-1.4,.5-.3,1.1-.5,2-.5,.8,0,1.5,.2,2.3,.5l-.4,.9c-.7-.3-1.4-.4-2-.4-.5,0-.9,.1-1.2,.2s-.4,.4-.4,.7c0,.2,0,.4,.1,.5s.3,.3,.5,.4,.6,.3,1.3,.5c.8,.3,1.4,.6,1.7,.9,.3,.2,.4,.6,.4,1.1Z"/><path class="b" d="M93.3,19.5h.6c.2,0,.3-.1,.4-.1v.8c-.1,.1-.3,.1-.5,.1s-.4,.1-.6,.1c-1.4,0-2.1-.7-2.1-2.2v-4.3h-1v-.5l1-.5,.5-1.5h.6v1.7h2.1v.8h-2.1v4.2c0,.4,.1,.8,.3,1,.2,.3,.4,.4,.8,.4Z"/><path class="b" d="M95.6,11.2c0-.2,.1-.4,.2-.5s.3-.2,.5-.2,.3,.1,.5,.2c.1,.1,.2,.3,.2,.5s-.1,.4-.2,.5-.3,.2-.5,.2-.3-.1-.5-.2c-.1-.1-.2-.3-.2-.5Zm1.2,9.1h-1.1v-7.2h1.1v7.2Z"/><path class="b" d="M105.3,16.7c0,1.2-.3,2.1-.9,2.7s-1.4,1-2.4,1c-.6,0-1.2-.2-1.7-.5s-.9-.7-1.1-1.3c-.3-.6-.4-1.2-.4-2,0-1.2,.3-2.1,.9-2.7,.6-.7,1.4-1,2.4-1s1.8,.3,2.4,1c.5,.7,.8,1.6,.8,2.8Zm-5.5,0c0,.9,.2,1.6,.5,2.1s.9,.7,1.6,.7,1.2-.2,1.6-.7,.6-1.2,.6-2.1-.2-1.6-.6-2.1-.9-.7-1.6-.7-1.2,.2-1.6,.7c-.3,.5-.5,1.1-.5,2.1Z"/><path class="b" d="M112.1,20.3v-4.6c0-.6-.1-1-.4-1.3s-.7-.4-1.2-.4c-.7,0-1.3,.2-1.6,.6s-.5,1.1-.5,2v3.8h-1.1v-7.2h.9l.2,1h.1c.2-.4,.5-.6,.9-.8s.8-.3,1.3-.3c.9,0,1.5,.2,1.9,.6s.7,1.1,.7,2v4.7l-1.2-.1h0Z"/><path class="b" d="M120,18.3c0,.7-.2,1.2-.7,1.5-.5,.4-1.2,.5-2.1,.5-1,0-1.7-.2-2.2-.5v-1c.3,.2,.7,.3,1.1,.4s.8,.2,1.1,.2c.6,0,1-.1,1.3-.3,.3-.2,.5-.5,.5-.8s-.1-.5-.4-.7c-.2-.2-.7-.4-1.4-.7-.7-.2-1.1-.5-1.4-.6-.3-.2-.5-.4-.6-.6-.1-.2-.2-.5-.2-.8,0-.6,.2-1,.7-1.4s1.1-.5,2-.5c.8,0,1.5,.2,2.3,.5l-.4,.9c-.7-.3-1.4-.4-2-.4-.5,0-.9,.1-1.2,.2-.3,.2-.4,.4-.4,.7,0,.2,0,.4,.1,.5s.3,.3,.5,.4,.6,.3,1.3,.5c.8,.3,1.4,.6,1.7,.9,.3,.2,.4,.6,.4,1.1Z"/></g></svg>