<?xml version="1.0" encoding="UTF-8"?><svg id="a" xmlns="http://www.w3.org/2000/svg" width="70" height="26" viewBox="0 0 70 26"><defs><style>.e{fill:#fff;}</style></defs><g id="b"><g id="c"><g id="d"><rect width="70" height="26"/><path class="e" d="M16,13c.1,1.2-.2,2.5-.8,3.6-.5,.8-1.4,1.2-2.3,1.2s-1.8-.4-2.3-1.2c-.6-1.1-.9-2.3-.8-3.5-.1-1.2,.2-2.5,.8-3.6,.5-.8,1.4-1.3,2.3-1.2,.9,0,1.8,.4,2.3,1.2,.7,1,.9,2.3,.8,3.5Zm-5,0c-.1,1,.1,2,.5,2.9,.3,.6,.9,1,1.5,.9,.7,0,1.3-.3,1.5-.9,.4-.9,.6-1.9,.5-2.9,.1-1-.1-2.1-.5-3-.3-.6-.9-.9-1.5-.9s-1.2,.3-1.5,.9c-.4,1-.6,2-.5,3Z"/><path class="e" d="M21.2,17.6h-1V9.4l-.2,.3-1.5,1.3-.6-.7,2.5-1.9h.9l-.1,9.2h0Z"/><path class="e" d="M25.1,11.3c-.1-.4,.2-.8,.5-.8h.2c.4,0,.8,.3,.8,.7v.2c0,.2-.1,.5-.2,.6-.3,.3-.8,.3-1.1,0-.1-.2-.2-.4-.2-.7Zm0,5.6c0-.2,.1-.5,.2-.6,.1-.2,.3-.2,.6-.2,.2,0,.4,.1,.6,.2,.1,.2,.2,.4,.2,.6s-.1,.5-.2,.6c-.3,.3-.8,.3-1.1,0-.2-.1-.3-.3-.3-.6h0Z"/><path class="e" d="M34.3,17.6h-6.1v-.9l2.4-2.5c.5-.5,1-1,1.5-1.6,.2-.3,.4-.6,.5-.9,.1-.3,.2-.7,.2-1,0-.4-.1-.9-.5-1.2-.3-.3-.8-.5-1.2-.4-.4,0-.7,.1-1.1,.2-.4,.2-.8,.4-1.1,.7l-.6-.7c.8-.7,1.8-1.1,2.8-1.1,.7,0,1.4,.2,2,.7,.5,.5,.8,1.1,.7,1.8,0,.6-.2,1.2-.5,1.8-.5,.8-1.1,1.5-1.9,2.2l-2,2h4.8l.1,.9h0Z"/><path class="e" d="M35.8,13.6c-.1-1.4,.3-2.9,1.1-4.1,.8-.9,2-1.4,3.2-1.3,.4,0,.8,0,1.1,.1v.9c-.4-.1-.7-.2-1.1-.2-1,0-1.8,.4-2.4,1-.6,.9-.9,1.9-.9,2.9h.1c.5-.7,1.3-1.2,2.2-1.1,.7,0,1.5,.2,2,.8,.5,.5,.7,1.3,.7,2,0,.9-.3,1.7-.9,2.3-.6,.6-1.3,.9-2.1,.8-.9,0-1.7-.4-2.3-1.1-.5-.8-.8-1.9-.7-3Zm3.1,3.3c.5,0,1-.2,1.4-.6,.4-.5,.5-1.1,.5-1.6s-.1-1-.5-1.4-.9-.6-1.4-.5c-.3,0-.7,.1-1,.2-.3,.1-.6,.4-.8,.6-.2,.3-.3,.6-.3,.9,0,.4,.1,.8,.2,1.2,.2,.4,.4,.7,.7,.9,.5,.1,.8,.2,1.2,.3Z"/><path class="e" d="M43.4,11.3c-.1-.4,.2-.8,.5-.8h.2c.4,0,.8,.3,.8,.7v.2c0,.2-.1,.5-.2,.6-.3,.3-.8,.3-1.1,0-.1-.2-.2-.4-.2-.7Zm0,5.6c0-.2,.1-.5,.2-.6,.1-.2,.3-.2,.6-.2,.2,0,.4,.1,.6,.2,.1,.2,.2,.4,.2,.6s-.1,.5-.2,.6c-.3,.3-.8,.3-1.1,0-.2-.1-.3-.3-.3-.6h0Z"/><path class="e" d="M53.1,15.5h-1.4v2.1h-1v-2.1h-4.5v-.9l4.4-6.3h1.1v6.2h1.4v1h0Zm-2.4-1v-3c0-.6,0-1.3,.1-2.1h0c-.2,.3-.4,.7-.6,1l-2.9,4.1h3.4Z"/><path class="e" d="M60.1,17.6h-6.1v-.9l2.4-2.5c.5-.5,1-1,1.5-1.6,.2-.3,.4-.6,.5-.9,.1-.3,.2-.7,.2-1,0-.4-.1-.9-.5-1.2-.3-.3-.8-.5-1.2-.4-.4,0-.7,.1-1.1,.2-.4,.1-.8,.4-1.1,.7l-.6-.7c.8-.7,1.8-1,2.8-1,.7,0,1.4,.2,2,.7,.5,.5,.8,1.1,.7,1.8,0,.6-.2,1.2-.5,1.8-.5,.8-1.1,1.5-1.8,2.2l-2,2h4.8v.8h0Z"/></g></g></g></svg>