<?xml version="1.0" encoding="UTF-8"?><svg id="a" xmlns="http://www.w3.org/2000/svg" width="31.16" height="30.96" viewBox="0 0 31.16 30.96"><defs><style>.b{fill:#fff;}.c{fill:#005cb9;}.d{fill:none;stroke:#fff;stroke-miterlimit:10;stroke-width:2px;}</style></defs><circle class="c" cx="15.58" cy="15.48" r="14.38"/><ellipse class="d" cx="15.58" cy="15.48" rx="14.58" ry="14.48"/><path class="b" d="M13.6,18.56v-.7c-.03-.69,.13-1.38,.44-2,.4-.64,.92-1.2,1.53-1.64,.63-.45,1.2-.99,1.68-1.59,.26-.4,.39-.87,.38-1.35,.03-.54-.21-1.06-.63-1.4-.52-.35-1.14-.52-1.77-.47-.65,0-1.31,.09-1.93,.29-.59,.2-1.17,.43-1.73,.71l-.9-1.92c1.45-.81,3.09-1.24,4.76-1.23,1.22-.08,2.43,.27,3.41,1,.88,.71,1.37,1.8,1.31,2.93,0,.49-.07,.99-.24,1.45-.17,.44-.42,.85-.73,1.21-.51,.55-1.07,1.06-1.68,1.5-.52,.37-.97,.82-1.36,1.32-.25,.42-.37,.91-.34,1.4v.49h-2.2Zm-.45,3.44c-.11-.79,.44-1.52,1.22-1.63,.13-.02,.26-.02,.39,0,.44-.03,.88,.13,1.2,.43,.29,.33,.45,.77,.42,1.21,.05,.45-.09,.91-.38,1.26-.69,.59-1.7,.59-2.39,0-.32-.34-.49-.8-.46-1.27Z"/></svg>