<svg id="Layer_1" data-name="Layer 1" xmlns="http://www.w3.org/2000/svg" width="35.23" height="31.26" viewBox="0 0 35.23 31.26"><defs><style>.cls-1{fill:white;}</style></defs><title>home</title><path class="cls-1" d="M35.2,17a0.85,0.85,0,0,0-.3-0.69l-16.59-16a1,1,0,0,0-1.38,0l-16.64,16A1,1,0,0,0,1,18a1,1,0,0,0,.69-0.25l3.7-3.55V28.24a2.62,2.62,0,0,0,3,3h6.32a1,1,0,0,0,1-1V20.13H19.5V30.21a1,1,0,0,0,1,1h6.37a2.62,2.62,0,0,0,3-3V14.12l3.7,3.6a1.12,1.12,0,0,0,.74.25,0.94,0.94,0,0,0,.94-1m-14,1.47a1,1,0,0,0-.69-0.3h-5.9a1,1,0,0,0-1,1V29.23H8.34a0.87,0.87,0,0,1-1-1v-16L17.6,2.37l10.22,9.87v16a0.87,0.87,0,0,1-1,1H21.47V19.15a1,1,0,0,0-.29-0.69h0.07Z" transform="translate(-0.02 -0.01)"/></svg>